<svg xmlns="http://www.w3.org/2000/svg" viewBox="0 0 200 200" width="100%" height="100%">
  <!-- Fondo crema mate idéntico a tu captura -->
  <rect width="100%" height="100%" fill="#f1e8d7" />

  <!-- Trazado vectorial pulido y fiel a las curvas orgánicas reales -->
  <path d="M 39,63 
           C 39,40 54.5,24 80,24 
           C 95,24 105,33 111,41 
           L 142,83 
           C 147,90 152,94 159,94 
           C 161,94 163,93.5 163,92 
           L 163,60 
           C 163,35.5 145.5,23.5 125,23.5 
           C 137,23.5 149,23.5 163,23.5 
           C 173,23.5 181,31.5 181,42 
           L 181,137 
           C 181,160 165.5,176 140,176 
           C 125,176 115,167 109,159 
           L 78,117 
           C 73,110 68,106 61,106 
           C 59,106 57,106.5 57,108 
           L 57,140 
           C 57,164.5 74.5,176.5 95,176.5 
           C 83,176.5 71,176.5 57,176.5 
           C 47,176.5 39,168.5 39,158 
           Z 
           M 57.5,74.5 
           C 51.5,50 63,33.5 80,33.5 
           C 73.5,41.5 61,54.5 57.5,74.5 
           Z 
           M 162.5,125.5 
           C 168.5,150 157,166.5 140,166.5 
           C 146.5,158.5 159,145.5 162.5,125.5 
           Z" 
        fill="#131516" />
</svg>
